HIERARCHY
ROOT SimulationBone
{
	OFFSET 0.000000 0.000000 0.000000
	CHANNELS 6 Xposition Yposition Zposition Zrotation Yrotation Xrotation 
	JOINT Hips
	{
		OFFSET 0.000000 0.000000 0.000000
		CHANNELS 6 Xposition Yposition Zposition Zrotation Yrotation Xrotation 
		JOINT RightUpLeg
		{
			OFFSET 0.103457 1.857818 10.548502
			CHANNELS 3 Zrotation Yrotation Xrotation
			JOINT RightLeg
			{
				OFFSET 43.500000 -0.000011 -0.000004
				CHANNELS 3 Zrotation Yrotation Xrotation
				JOINT RightFoot
				{
					OFFSET 42.372192 -0.000004 -0.000008
					CHANNELS 3 Zrotation Yrotation Xrotation
					JOINT RightToe
					{
						OFFSET 17.300014 0.000006 0.000001
						CHANNELS 3 Zrotation Yrotation Xrotation
						End Site
						{
							OFFSET 0.000000 0.000000 0.000000
						}
					}
				}
			}
		}
		JOINT LeftUpLeg
		{
			OFFSET 0.103457 1.857817 -10.548505
			CHANNELS 3 Zrotation Yrotation Xrotation
			JOINT LeftLeg
			{
				OFFSET 43.500046 -0.000004 0.000011
				CHANNELS 3 Zrotation Yrotation Xrotation
				JOINT LeftFoot
				{
					OFFSET 42.372257 0.000000 0.000015
					CHANNELS 3 Zrotation Yrotation Xrotation
					JOINT LeftToe
					{
						OFFSET 17.300003 -0.000000 0.000002
						CHANNELS 3 Zrotation Yrotation Xrotation
						End Site
						{
							OFFSET 0.000000 0.000000 0.000000
						}
					}
				}
			}
		}
		JOINT Spine
		{
			OFFSET 6.901961 -2.603721 -0.000001
			CHANNELS 3 Zrotation Yrotation Xrotation
			JOINT Spine1
			{
				OFFSET 12.588108 0.000002 -0.000001
				CHANNELS 3 Zrotation Yrotation Xrotation
				JOINT Spine2
				{
					OFFSET 12.343199 -0.000020 0.000006
					CHANNELS 3 Zrotation Yrotation Xrotation
					JOINT Neck
					{
						OFFSET 25.832905 0.000017 0.000000
						CHANNELS 3 Zrotation Yrotation Xrotation
						JOINT Head
						{
							OFFSET 11.766604 -0.000006 0.000004
							CHANNELS 3 Zrotation Yrotation Xrotation
							End Site
							{
								OFFSET 0.000000 0.000000 0.000000
							}
						}
					}
					JOINT RightShoulder
					{
						OFFSET 19.745903 -1.480350 6.000100
						CHANNELS 3 Zrotation Yrotation Xrotation
						JOINT RightArm
						{
							OFFSET 11.284130 -0.000016 -0.000016
							CHANNELS 3 Zrotation Yrotation Xrotation
							JOINT RightForeArm
							{
								OFFSET 33.000046 0.000004 0.000031
								CHANNELS 3 Zrotation Yrotation Xrotation
								JOINT RightHand
								{
									OFFSET 25.199999 0.000027 0.000001
									CHANNELS 3 Zrotation Yrotation Xrotation
									End Site
									{
										OFFSET 0.000000 0.000000 0.000000
									}
								}
							}
						}
					}
					JOINT LeftShoulder
					{
						OFFSET 19.746094 -1.480375 -6.000080
						CHANNELS 3 Zrotation Yrotation Xrotation
						JOINT LeftArm
						{
							OFFSET 11.284131 -0.000016 -0.000017
							CHANNELS 3 Zrotation Yrotation Xrotation
							JOINT LeftForeArm
							{
								OFFSET 33.000095 0.000009 0.000020
								CHANNELS 3 Zrotation Yrotation Xrotation
								JOINT LeftHand
								{
									OFFSET 25.199789 0.000132 0.000423
									CHANNELS 3 Zrotation Yrotation Xrotation
									End Site
									{
										OFFSET 0.000000 0.000000 0.000000
									}
								}
							}
						}
					}
				}
			}
		}
	}
}
MOTION
Frames: 15
Frame Time: 0.016667
-110.885100 0.000000 497.707961 0.000000 63.461316 0.000000 0.397417 86.671028 -1.382989 95.924272 -1.417941 179.691853 168.625431 -12.983799 172.543993 -38.850808 -3.062198 -3.509936 85.247276 0.627609 -9.743219 21.454560 0.003110 0.000018 -176.489124 22.741306 -173.189678 -27.150918 0.277922 3.742676 77.445383 3.414247 22.600679 21.454555 -0.003088 -0.000001 8.878046 0.515402 -0.055318 7.743228 1.033394 -0.076090 7.425078 1.032779 -0.082335 17.367863 9.236356 4.520761 -2.916289 -13.048312 7.914307 -155.241592 -71.639597 -26.848288 6.214807 56.671205 20.072412 -26.635949 -14.502047 1.162722 10.475137 4.733631 13.940593 -160.348101 78.137386 21.545884 -20.131852 -53.658849 -4.298361 -40.412729 15.753985 -1.517858 8.853881 4.281502 -31.581913 
-111.591227 0.000000 496.723338 0.000000 63.798684 0.000000 0.327014 86.428693 -1.592527 96.043550 -2.276253 179.337940 168.772356 -11.950585 171.792107 -39.845400 -3.851046 -3.074184 86.291337 0.600089 -8.763897 21.454557 0.003111 0.000018 -178.133177 23.892668 -174.273491 -30.404462 -1.177708 4.168278 75.933497 3.806814 23.831439 21.454555 -0.003090 -0.000001 8.958076 0.257110 -0.032727 7.903277 0.515900 -0.047847 7.585174 0.515467 -0.050970 17.556982 8.725654 4.240148 -3.040535 -12.198585 7.417023 -155.599012 -71.223548 -26.489979 3.341771 55.823981 18.683254 -25.932524 -14.071248 1.123341 10.593756 3.264857 13.913644 -160.343768 77.989023 21.552328 -19.593506 -54.376253 -4.127537 -38.995156 15.779998 -1.482752 9.152887 4.681143 -32.566427 
-112.279849 0.000000 495.731605 0.000000 64.135030 0.000000 0.224294 86.275810 -1.758561 96.086210 -3.089081 178.995982 169.019356 -10.798293 171.079491 -40.383595 -4.426751 -2.751667 87.185465 0.635441 -7.701296 21.454557 0.003113 0.000018 179.800523 24.707592 -175.854654 -34.060042 -2.535859 5.209993 73.954521 3.718584 24.517300 21.454557 -0.003092 -0.000002 9.030284 0.008202 -0.025670 8.047697 0.018210 -0.050711 7.729606 0.017769 -0.050829 17.737048 8.182968 3.970084 -3.190125 -11.431777 6.952391 -156.289576 -70.875258 -25.786817 0.597197 55.002999 17.445803 -25.367626 -13.706421 1.091002 10.762214 1.795125 13.985311 -160.273706 77.874889 21.625297 -19.081893 -55.362332 -3.771191 -37.620322 15.738620 -1.445326 9.472651 5.387972 -33.259199 
-112.948427 0.000000 494.731327 0.000000 64.467175 0.000000 0.122902 86.276476 -1.879324 96.078849 -3.720530 178.744028 169.402944 -9.559847 170.604069 -40.372471 -4.690940 -2.631226 87.716892 0.730820 -6.877473 21.454558 0.003113 0.000018 177.530235 25.008121 -177.654309 -37.857705 -3.538361 6.998372 71.440177 2.720264 23.744767 21.454558 -0.003092 -0.000003 9.095259 -0.196134 -0.044375 8.177882 -0.388591 -0.102489 7.859770 -0.389345 -0.100143 17.898028 7.663272 3.712739 -3.314708 -10.813922 6.534330 -157.240978 -70.636582 -24.811961 -1.922568 54.304378 16.382562 -25.002936 -13.448160 1.068875 10.959649 0.433340 14.169828 -160.203537 77.807136 21.697772 -18.543458 -56.567180 -3.342025 -36.345035 15.607976 -1.405754 9.842381 6.303543 -33.537863 
-113.595257 0.000000 493.721421 0.000000 64.793422 0.000000 0.046412 86.435402 -1.951979 96.063052 -4.092963 178.638276 169.964531 -8.348800 170.510318 -39.841319 -4.758347 -2.722824 87.944832 0.913273 -6.258718 21.454560 0.003112 0.000018 175.262750 24.804898 -179.314964 -41.507011 -4.066705 9.510248 68.132215 0.634094 21.118310 21.454558 -0.003093 -0.000002 9.158631 -0.336895 -0.094997 8.305186 -0.666045 -0.213910 7.987052 -0.667473 -0.209881 18.045314 7.226540 3.471130 -3.396047 -10.361498 6.169220 -158.286286 -70.520225 -23.737302 -4.244522 53.776700 15.443583 -24.840034 -13.291275 1.056151 11.140782 -0.748103 14.429794 -160.179996 77.746092 21.722668 -17.934688 -57.885414 -2.998980 -35.200461 15.407220 -1.366107 10.274496 7.251205 -33.368393 
-114.219323 0.000000 492.701335 0.000000 65.113501 0.000000 0.008529 86.733029 -1.970447 96.075259 -4.165875 178.715587 170.730452 -7.289344 170.882930 -38.872508 -4.775316 -2.998606 87.984913 1.195306 -5.739091 21.454560 0.003113 0.000018 173.166832 24.183079 179.474643 -44.768897 -4.099904 12.502048 64.207832 -2.501044 16.923130 21.454554 -0.003095 0.000004 9.225637 -0.405213 -0.180798 8.439992 -0.796113 -0.390646 8.121862 -0.798602 -0.385831 18.186593 6.927426 3.248514 -3.432313 -10.067520 5.859439 -159.258040 -70.532984 -22.735847 -6.426150 53.441798 14.563019 -24.863466 -13.214184 1.051556 11.259872 -1.693713 14.712546 -160.223338 77.640147 21.680048 -17.209353 -59.209557 -2.908828 -34.206965 15.170600 -1.328188 10.772923 8.043796 -32.768539 
-114.820135 0.000000 491.670581 0.000000 65.427865 0.000000 -0.008694 87.112091 -1.918488 96.115127 -3.992097 178.963187 171.644184 -6.453511 171.623147 -37.630557 -4.817310 -3.370196 87.905305 1.529883 -5.278275 21.454560 0.003110 0.000018 171.302647 23.250394 178.791799 -47.702761 -3.807854 15.022448 61.374918 -5.444817 13.419906 21.454551 -0.003096 0.000007 9.295156 -0.416622 -0.297478 8.579882 -0.810011 -0.625002 8.261775 -0.813906 -0.620105 18.324549 6.794040 3.048301 -3.454452 -9.880515 5.599478 -160.052901 -70.675625 -21.914704 -8.538095 53.272096 13.670601 -25.048600 -13.175819 1.052015 11.285232 -2.381557 14.949740 -160.265906 77.441793 21.639501 -16.344217 -60.482641 -3.187086 -33.368540 14.951559 -1.295716 11.320400 8.534738 -31.870614 
-115.396996 0.000000 490.628343 0.000000 65.737747 0.000000 -0.028174 87.511692 -1.785321 96.168653 -3.652242 179.350619 172.622917 -5.871586 172.571519 -36.283898 -4.919088 -3.741875 87.760501 1.857353 -4.854005 21.454561 0.003101 0.000017 169.661833 22.108103 178.616083 -50.427578 -3.428063 16.226691 60.898812 -6.740352 12.374087 21.454550 -0.003095 0.000003 9.363227 -0.393015 -0.438845 8.716764 -0.751834 -0.906026 8.398686 -0.757423 -0.901479 18.455560 6.839214 2.874109 -3.500102 -9.742827 5.382836 -160.604415 -70.945869 -21.342770 -10.629567 53.225585 12.715494 -25.377966 -13.138376 1.054792 11.199096 -2.801516 15.076017 -160.221334 77.117710 21.689568 -15.317234 -61.673617 -3.910630 -32.686707 14.799593 -1.271340 11.880164 8.617283 -30.856892 
-115.949379 0.000000 489.573447 0.000000 66.046095 0.000000 -0.058346 87.894127 -1.589532 96.197045 -3.243631 179.826083 173.587304 -5.466209 173.521284 -34.938517 -5.010941 -4.039989 87.600303 2.128317 -4.451369 21.454562 0.003095 0.000016 168.113454 20.826401 178.812290 -52.907785 -3.013354 16.326746 62.102797 -6.834236 12.620699 21.454553 -0.003095 -0.000002 9.420966 -0.357276 -0.598624 8.832801 -0.667801 -1.222750 8.514761 -0.675300 -1.218708 18.555759 7.041187 2.729966 -3.598719 -9.615440 5.207678 -160.953899 -71.332259 -20.977690 -12.672006 53.261294 11.705896 -25.871857 -13.096645 1.060097 11.021781 -2.958023 15.055205 -160.010703 76.686982 21.910700 -14.097001 -62.810623 -5.046005 -32.170685 14.728961 -1.255860 12.391588 8.297643 -29.980974 
-116.478938 0.000000 488.504621 0.000000 66.357437 0.000000 -0.102413 88.237969 -1.356572 96.160232 -2.842455 -179.667368 174.479234 -5.146994 174.284784 -33.654251 -5.015002 -4.206030 87.459198 2.304665 -4.056668 21.454561 0.003098 0.000016 166.530732 19.450177 179.234525 -55.062883 -2.537070 15.743342 63.994732 -6.578736 12.658825 21.454555 -0.003100 -0.000000 9.460000 -0.326849 -0.770411 8.911329 -0.593399 -1.563677 8.593344 -0.602950 -1.560080 18.596961 7.365768 2.619135 -3.771838 -9.472451 5.074156 -161.168584 -71.815435 -20.750378 -14.614412 53.343407 10.672644 -26.560867 -13.057788 1.069064 10.782110 -2.867842 14.867394 -159.592058 76.186246 22.345651 -12.653623 -63.932488 -6.518467 -31.829387 14.737250 -1.249372 12.793875 7.625610 -29.495214 
-116.988176 0.000000 487.421162 0.000000 66.676556 0.000000 -0.161139 88.563713 -1.117225 96.040185 -2.425185 -179.179761 175.320793 -4.903599 174.790483 -32.363160 -4.915363 -4.234285 87.316072 2.384800 -3.655615 21.454560 0.003102 0.000016 164.907582 17.977490 179.790250 -56.822942 -2.005296 14.700261 65.761511 -6.172182 12.174320 21.454557 -0.003101 0.000002 9.478624 -0.296229 -0.947215 8.948832 -0.518331 -1.914465 8.630918 -0.529998 -1.911317 18.553075 7.764007 2.542412 -4.017087 -9.321614 4.986052 -161.320106 -72.357804 -20.587572 -16.405705 53.449005 9.664900 -27.479112 -13.045944 1.083962 10.509165 -2.580164 14.532170 -159.019602 75.671361 22.938705 -10.975109 -65.062468 -8.192558 -31.662198 14.790677 -1.249329 13.035660 6.695953 -29.582334 
-117.477016 0.000000 486.322682 0.000000 67.007914 0.000000 -0.235785 88.887193 -0.897948 95.831447 -1.968955 -178.762903 176.141399 -4.734821 175.000920 -31.007541 -4.724747 -4.131150 87.156373 2.376416 -3.236644 21.454558 0.003100 0.000017 163.256995 16.410171 -179.604485 -58.146364 -1.432557 13.363645 66.808079 -5.629574 11.252822 21.454556 -0.003093 -0.000001 9.478215 -0.260085 -1.122811 8.947930 -0.432573 -2.262327 8.630101 -0.446349 -2.259690 18.407875 8.183850 2.498846 -4.328300 -9.178092 4.946818 -161.472936 -72.916694 -20.423562 -18.001637 53.554689 8.736121 -28.651492 -13.084585 1.107469 10.225045 -2.160280 14.082828 -158.371518 75.198282 23.609301 -9.061199 -66.214150 -9.937294 -31.658169 14.849949 -1.253021 13.088299 5.599935 -30.358183 
-117.944460 0.000000 485.208612 0.000000 67.354618 0.000000 -0.330416 89.163689 -0.692833 95.557065 -1.552964 -178.481492 176.919767 -4.591707 174.900080 -29.700739 -4.511533 -3.899501 87.046887 2.285760 -2.798998 21.454558 0.003101 0.000018 161.545312 14.820112 -179.053819 -59.093908 -0.877241 11.858230 67.243683 -4.864404 10.432839 21.454555 -0.003085 -0.000004 9.466089 -0.236706 -1.294686 8.923634 -0.372859 -2.603719 8.605897 -0.388708 -2.601435 18.182093 8.575427 2.484650 -4.708348 -9.053640 4.954648 -161.642901 -73.447998 -20.242615 -19.391703 53.614893 7.932091 -30.061697 -13.177957 1.139992 9.925989 -1.706419 13.566925 -157.771917 74.804043 24.229797 -6.924182 -67.368250 -11.713341 -31.773981 14.885315 -1.257733 12.971158 4.376334 -31.755987 
-118.391122 0.000000 484.078518 0.000000 67.717984 0.000000 -0.446681 89.348628 -0.492998 95.248089 -1.256891 -178.389213 177.642815 -4.425950 174.496902 -28.556419 -4.350393 -3.553291 87.053619 2.124386 -2.340138 21.454557 0.003114 0.000019 159.759290 13.261511 -178.632345 -59.711261 -0.392851 10.309632 67.367621 -3.868083 10.103398 21.454554 -0.003088 -0.000002 9.451165 -0.244305 -1.460962 8.894373 -0.375593 -2.936325 8.576729 -0.393453 -2.934020 17.906914 8.895664 2.495897 -5.158396 -8.957594 5.005632 -161.825488 -73.912027 -20.049783 -20.583542 53.586312 7.285807 -31.675085 -13.322407 1.181391 9.602098 -1.319455 13.035542 -157.332197 74.514580 24.685356 -4.607670 -68.491512 -13.503057 -31.953451 14.874746 -1.260774 12.725355 3.037070 -33.638345 
-118.818656 0.000000 482.932034 0.000000 68.097115 0.000000 -0.575361 89.458572 -0.315163 94.941261 -1.056899 -178.490685 178.380390 -4.239196 173.874842 -27.518828 -4.288648 -3.141340 87.158329 1.930485 -1.838590 21.454557 0.003125 0.000020 157.993040 11.662501 -178.274890 -59.896940 0.031500 8.886901 67.496973 -3.032873 9.594646 21.454553 -0.003095 0.000002 9.442404 -0.277315 -1.618658 8.878166 -0.429638 -3.253771 8.560617 -0.449411 -3.251133 17.618248 9.126173 2.528676 -5.663539 -8.893304 5.092330 -161.988481 -74.288173 -19.878308 -21.638091 53.455483 6.771711 -33.423940 -13.501998 1.230029 9.238919 -1.078578 12.537952 -157.114129 74.326285 24.912283 -2.253201 -69.525223 -15.299150 -32.121573 14.817539 -1.260549 12.436520 1.553721 -35.764611 
